<svg width="20" height="21" viewBox="0 0 20 21" fill="none" xmlns="http://www.w3.org/2000/svg">
<path fill-rule="evenodd" clip-rule="evenodd" d="M17.5 5.04547C17.5 3.9158 16.5843 3.00002 15.4545 3.00002H4.54545C3.41578 3.00002 2.5 3.9158 2.5 5.04547V15.9546C2.5 17.0843 3.41578 18 4.54545 18H15.4545C16.5843 18 17.5 17.0843 17.5 15.9546V5.04547ZM16.1364 5.04547C16.1364 4.66892 15.8311 4.36365 15.4545 4.36365H4.54545C4.1689 4.36365 3.86364 4.66892 3.86364 5.04547V15.9546C3.86364 16.3311 4.1689 16.6364 4.54545 16.6364H15.4545C15.8311 16.6364 16.1364 16.3311 16.1364 15.9546V5.04547Z" fill="#EDEDED"/>
<path d="M5.09545 14.2644L8.0378 8.87011C8.29622 8.39634 8.97653 8.39634 9.23494 8.87011L11.3953 12.8309L12.1353 11.536C12.3971 11.0779 13.0575 11.0779 13.3192 11.536L14.8717 14.2527C15.1314 14.7072 14.8031 15.2727 14.2796 15.2727H5.69401C5.17647 15.2727 4.84762 14.7188 5.09545 14.2644Z" fill="#EDEDED"/>
<path d="M14.091 7.77275C14.091 8.52587 13.4805 9.13639 12.7274 9.13639C11.9743 9.13639 11.3638 8.52587 11.3638 7.77275C11.3638 7.01964 11.9743 6.40912 12.7274 6.40912C13.4805 6.40912 14.091 7.01964 14.091 7.77275Z" fill="#EDEDED"/>
</svg>
