<svg width="20" height="21" viewBox="0 0 20 21" fill="none" xmlns="http://www.w3.org/2000/svg">
<path fill-rule="evenodd" clip-rule="evenodd" d="M17.5 5.04544C17.5 3.91577 16.5843 2.99998 15.4545 2.99998H4.54545C3.41578 2.99998 2.5 3.91577 2.5 5.04544V15.9545C2.5 17.0842 3.41578 18 4.54545 18H15.4545C16.5843 18 17.5 17.0842 17.5 15.9545V5.04544ZM16.1364 5.04544C16.1364 4.66888 15.8311 4.36362 15.4545 4.36362H4.54545C4.1689 4.36362 3.86364 4.66888 3.86364 5.04544V15.9545C3.86364 16.3311 4.1689 16.6363 4.54545 16.6363H15.4545C15.8311 16.6363 16.1364 16.3311 16.1364 15.9545V5.04544Z" fill="#E5C839"/>
<path d="M5.09533 14.2644L8.03768 8.87008C8.2961 8.39631 8.97641 8.39631 9.23481 8.87008L11.3952 12.8309L12.1352 11.5359C12.397 11.0779 13.0574 11.0779 13.3191 11.5359L14.8715 14.2526C15.1312 14.7071 14.803 15.2727 14.2795 15.2727H5.69389C5.17635 15.2727 4.8475 14.7187 5.09533 14.2644Z" fill="#E5C839"/>
<path d="M14.091 7.77272C14.091 8.52584 13.4805 9.13636 12.7274 9.13636C11.9743 9.13636 11.3638 8.52584 11.3638 7.77272C11.3638 7.01961 11.9743 6.40909 12.7274 6.40909C13.4805 6.40909 14.091 7.01961 14.091 7.77272Z" fill="#E5C839"/>
</svg>
