<svg width="20" height="21" viewBox="0 0 20 21" fill="none" xmlns="http://www.w3.org/2000/svg">
<path fill-rule="evenodd" clip-rule="evenodd" d="M12.559 6.37506C12.559 6.0644 12.7932 5.81256 13.0823 5.81256H16.9767C17.2657 5.81256 17.5 6.0644 17.5 6.37506V10.5344C17.5 10.8451 17.2657 11.0969 16.9767 11.0969C16.6878 11.0969 16.4535 10.8451 16.4535 10.5344V7.72721L12.1727 12.301C11.8455 12.6506 11.5635 12.952 11.3074 13.1609C11.0328 13.3847 10.7278 13.5541 10.3523 13.5541C9.97684 13.554 9.67188 13.3846 9.39735 13.1606C9.1413 12.9517 8.85937 12.6503 8.53229 12.3006L8.34095 12.0961C7.98223 11.7126 7.74966 11.4657 7.55601 11.3077C7.37445 11.1596 7.28958 11.143 7.23336 11.1431C7.17716 11.1431 7.09229 11.1597 6.91083 11.308C6.71729 11.4661 6.48489 11.7132 6.12643 12.097L3.39248 15.0236C3.1877 15.2429 2.8564 15.2421 2.65248 15.022C2.44857 14.8019 2.44926 14.4457 2.65403 14.2265L5.41232 11.2737C5.73948 10.9234 6.02145 10.6216 6.27757 10.4123C6.55211 10.188 6.85722 10.0183 7.23299 10.0181C7.60875 10.018 7.91397 10.1875 8.18866 10.4116C8.44492 10.6206 8.72709 10.9223 9.05451 11.2723L9.24581 11.4769C9.60421 11.86 9.8366 12.1066 10.0301 12.2645C10.2115 12.4125 10.2963 12.4291 10.3525 12.4291C10.4086 12.4291 10.4935 12.4125 10.6749 12.2646C10.8684 12.1068 11.1008 11.8601 11.4593 11.4771L15.708 6.93756H13.0823C12.7932 6.93756 12.559 6.68572 12.559 6.37506Z" fill="#EDEDED"/>
</svg>
