<svg width="20" height="21" viewBox="0 0 20 21" fill="none" xmlns="http://www.w3.org/2000/svg">
<path d="M6.08692 3V4.95652H4.78257C3.70994 4.95652 2.82605 5.84041 2.82605 6.91304V16.0435C2.82605 17.1161 3.70994 18 4.78257 18H15.2174C16.29 18 17.1739 17.1161 17.1739 16.0435V6.91304C17.1739 5.84041 16.29 4.95652 15.2174 4.95652H13.913V3H12.6087V4.95652H7.39127V3H6.08692ZM4.78257 6.26087H15.2174C15.5899 6.26087 15.8695 6.54046 15.8695 6.91304V16.0435C15.8695 16.4161 15.5899 16.6957 15.2174 16.6957H4.78257C4.40999 16.6957 4.1304 16.4161 4.1304 16.0435V6.91304C4.1304 6.54046 4.40999 6.26087 4.78257 6.26087ZM11.3043 11.4783C10.943 11.4783 10.6521 11.7691 10.6521 12.1304V14.7391C10.6521 15.1004 10.943 15.3913 11.3043 15.3913H13.913C14.2743 15.3913 14.5652 15.1004 14.5652 14.7391V12.1304C14.5652 11.7691 14.2743 11.4783 13.913 11.4783H11.3043Z" fill="#E5C839"/>
</svg>
