<svg width="20" height="21" viewBox="0 0 20 21" fill="none" xmlns="http://www.w3.org/2000/svg">
<path d="M15.625 10.875C15.625 9.84 16.465 9 17.5 9V8.25C17.5 5.25 16.75 4.5 13.75 4.5H6.25C3.25 4.5 2.5 5.25 2.5 8.25V8.625C3.535 8.625 4.375 9.465 4.375 10.5C4.375 11.535 3.535 12.375 2.5 12.375V12.75C2.5 15.75 3.25 16.5 6.25 16.5H13.75C16.75 16.5 17.5 15.75 17.5 12.75C16.465 12.75 15.625 11.91 15.625 10.875Z" stroke="#E5C839" stroke-width="1.5" stroke-linecap="round" stroke-linejoin="round"/>
<path d="M8.5 4.5V16.5" stroke="#E5C839" stroke-width="1.5" stroke-linecap="round" stroke-linejoin="round" stroke-dasharray="166.67 166.67"/>
</svg>
