<svg width="16" height="16" viewBox="0 0 16 16" fill="none" xmlns="http://www.w3.org/2000/svg">
<path d="M4.88231 1.85158C6.40385 0.950525 7.16465 0.5 8 0.5C8.83535 0.5 9.59615 0.950525 11.1177 1.85158L11.6323 2.15634C13.1539 3.0574 13.9147 3.50793 14.3323 4.25C14.75 4.99207 14.75 5.89313 14.75 7.69528V8.30472C14.75 10.1069 14.75 11.0079 14.3323 11.75C13.9147 12.4921 13.1539 12.9426 11.6323 13.8436L11.1177 14.1484C9.59615 15.0495 8.83535 15.5 8 15.5C7.16465 15.5 6.40385 15.0495 4.88231 14.1484L4.36769 13.8436C2.84615 12.9426 2.08538 12.4921 1.66769 11.75C1.25 11.0079 1.25 10.1069 1.25 8.30472V7.69528C1.25 5.89313 1.25 4.99207 1.66769 4.25C2.08538 3.50793 2.84615 3.0574 4.36769 2.15634L4.88231 1.85158Z" stroke="#E5C839"/>
<path d="M8 10.25C9.24264 10.25 10.25 9.24264 10.25 8C10.25 6.75736 9.24264 5.75 8 5.75C6.75736 5.75 5.75 6.75736 5.75 8C5.75 9.24264 6.75736 10.25 8 10.25Z" stroke="#E5C839"/>
</svg>
