<svg width="20" height="21" viewBox="0 0 20 21" fill="none" xmlns="http://www.w3.org/2000/svg">
<path d="M6.08704 3.00003V4.95655H4.78269C3.71006 4.95655 2.82617 5.84044 2.82617 6.91307V16.0435C2.82617 17.1161 3.71006 18 4.78269 18H15.2175C16.2901 18 17.174 17.1161 17.174 16.0435V6.91307C17.174 5.84044 16.2901 4.95655 15.2175 4.95655H13.9131V3.00003H12.6088V4.95655H7.39139V3.00003H6.08704ZM4.78269 6.2609H15.2175C15.5901 6.2609 15.8697 6.54049 15.8697 6.91307V16.0435C15.8697 16.4161 15.5901 16.6957 15.2175 16.6957H4.78269C4.41011 16.6957 4.13052 16.4161 4.13052 16.0435V6.91307C4.13052 6.54049 4.41011 6.2609 4.78269 6.2609ZM11.3044 11.4783C10.9431 11.4783 10.6523 11.7692 10.6523 12.1305V14.7392C10.6523 15.1005 10.9431 15.3913 11.3044 15.3913H13.9131C14.2744 15.3913 14.5653 15.1005 14.5653 14.7392V12.1305C14.5653 11.7692 14.2744 11.4783 13.9131 11.4783H11.3044Z" fill="#EDEDED"/>
</svg>
