<svg width="16" height="11" viewBox="0 0 16 11" fill="none" xmlns="http://www.w3.org/2000/svg">
<path d="M10.9726 0.531277H5.02734C2.52685 0.531277 0.5 2.55813 0.5 5.05868V5.94145C0.5 8.44196 2.52685 10.4688 5.02734 10.4688H10.9726C13.4732 10.4688 15.5 8.44196 15.5 5.94145V5.05868C15.5 2.55813 13.4732 0.531277 10.9726 0.531277ZM10.459 9.60401H5.54199C3.27877 9.60401 1.43749 7.76325 1.43749 5.5C1.43749 3.23685 3.27877 1.39553 5.54199 1.39553H10.459C12.7221 1.39553 14.563 3.23685 14.563 5.5C14.563 7.76325 12.7222 9.60401 10.459 9.60401Z" fill="#EDEDED"/>
<path d="M10.459 3.39555H5.54203C4.38137 3.39555 3.4375 4.33939 3.4375 5.50002C3.4375 6.66017 4.38137 7.60404 5.54203 7.60404H10.459C11.6192 7.60404 12.563 6.6602 12.563 5.50002C12.563 4.33939 11.6192 3.39555 10.459 3.39555Z" fill="#EDEDED"/>
<path d="M10.459 2.14553H5.54199C3.69239 2.14553 2.1875 3.65045 2.1875 5.50002C2.1875 7.34962 3.69239 8.85409 5.54199 8.85409H10.459C12.3086 8.85409 13.813 7.34965 13.813 5.50002C13.813 3.65045 12.3086 2.14553 10.459 2.14553ZM10.459 8.35402H5.54199C3.96825 8.35402 2.68751 7.07379 2.68751 5.49999C2.68751 3.92629 3.96825 2.64551 5.54199 2.64551H10.459C12.0327 2.64551 13.313 3.92629 13.313 5.49999C13.313 7.07379 12.0327 8.35402 10.459 8.35402Z" fill="#EDEDED"/>
</svg>
