<svg width="20" height="21" viewBox="0 0 20 21" fill="none" xmlns="http://www.w3.org/2000/svg">
<path d="M12.9726 5.53125H7.02734C4.52685 5.53125 2.5 7.55811 2.5 10.0587V10.9414C2.5 13.4419 4.52685 15.4688 7.02734 15.4688H12.9726C15.4732 15.4688 17.5 13.4419 17.5 10.9414V10.0587C17.5 7.55811 15.4732 5.53125 12.9726 5.53125ZM12.459 14.604H7.54199C5.27877 14.604 3.43749 12.7632 3.43749 10.5C3.43749 8.23682 5.27877 6.39551 7.54199 6.39551H12.459C14.7221 6.39551 16.563 8.23682 16.563 10.5C16.563 12.7632 14.7222 14.604 12.459 14.604Z" fill="#E5C839"/>
<path d="M12.4589 8.39552H7.54191C6.38125 8.39552 5.43738 9.33936 5.43738 10.5C5.43738 11.6601 6.38125 12.604 7.54191 12.604H12.4589C13.6191 12.604 14.5629 11.6602 14.5629 10.5C14.5629 9.33936 13.6191 8.39552 12.4589 8.39552Z" fill="#E5C839"/>
<path d="M12.459 7.14551H7.54199C5.69239 7.14551 4.1875 8.65043 4.1875 10.5C4.1875 12.3496 5.69239 13.8541 7.54199 13.8541H12.459C14.3086 13.8541 15.813 12.3496 15.813 10.5C15.813 8.65043 14.3086 7.14551 12.459 7.14551ZM12.459 13.354H7.54199C5.96825 13.354 4.68751 12.0738 4.68751 10.5C4.68751 8.92626 5.96825 7.64548 7.54199 7.64548H12.459C14.0327 7.64548 15.313 8.92626 15.313 10.5C15.313 12.0738 14.0327 13.354 12.459 13.354Z" fill="#E5C839"/>
</svg>
