<svg width="16" height="11" viewBox="0 0 16 11" fill="none" xmlns="http://www.w3.org/2000/svg">
<path fill-rule="evenodd" clip-rule="evenodd" d="M10.559 1.37506C10.559 1.0644 10.7932 0.812561 11.0823 0.812561H14.9767C15.2657 0.812561 15.5 1.0644 15.5 1.37506V5.53442C15.5 5.84507 15.2657 6.09692 14.9767 6.09692C14.6878 6.09692 14.4535 5.84507 14.4535 5.53442V2.72721L10.1727 7.30105C9.84549 7.65062 9.56349 7.95197 9.30737 8.16085C9.03284 8.38473 8.72781 8.55408 8.35232 8.55408C7.97684 8.554 7.67188 8.38457 7.39735 8.16062C7.1413 7.95167 6.85937 7.65032 6.53229 7.3006L6.34095 7.09607C5.98223 6.7126 5.74966 6.4657 5.55601 6.30775C5.37445 6.15962 5.28958 6.14305 5.23336 6.14312C5.17716 6.14312 5.09229 6.1597 4.91083 6.30797C4.71729 6.46615 4.48489 6.7132 4.12643 7.09697L1.39248 10.0236C1.1877 10.2429 0.856399 10.2421 0.652483 10.022C0.448567 9.80185 0.449265 9.44568 0.654032 9.22653L3.41232 6.2737C3.73948 5.92345 4.02145 5.62157 4.27757 5.41232C4.55211 5.18799 4.85722 5.01827 5.23299 5.01812C5.60875 5.01797 5.91397 5.18747 6.18866 5.41157C6.44492 5.62059 6.72709 5.92232 7.05451 6.27227L7.24581 6.47687C7.60421 6.85997 7.8366 7.10665 8.03007 7.26452C8.21146 7.4125 8.2963 7.42907 8.35246 7.42907C8.40863 7.42907 8.49346 7.4125 8.67486 7.2646C8.86839 7.1068 9.10079 6.86012 9.45926 6.4771L13.708 1.93756H11.0823C10.7932 1.93756 10.559 1.68572 10.559 1.37506Z" fill="#EDEDED"/>
</svg>
